<svg xmlns="http://www.w3.org/2000/svg" viewBox="0 0 432 149.49"><path fill="#cf102d" d="M21 36.84q7 17.88 13.9 35.76h.2c4.42-14 8.86-28 13.45-41.91a510 510 0 0 0 21.84-6.63c-1.06 12-.79 24.18-.67 36.17S69.78 84.12 71.1 96c-7.55 2.73-11.33 4.1-18.86 6.55.53-8.08.48-12.4.42-17.73l-.34-30.21-.2.06Q45.36 76 38.65 97.32c-4.08 1.1-6.11 1.61-10.18 2.49-5-12.51-9.76-25.11-14.48-37.73h-.2l.29 31.71c.05 5.44.09 9.84.78 17.73a98 98 0 0 1-14.38 1c1.08-12.4.84-24.94.76-37.32-.08-12.15.01-24.48-1.24-36.63a113 113 0 0 0 21-1.73m94.24-26.37c3.42 14.9 9.34 29.31 14.45 43.66 4.94 13.88 7.24 18.43 8.81 21.73a153 153 0 0 0-20.77 4.44c-.42-2.55-2.21-7.78-4.1-12.69a321 321 0 0 0-19.37 6.08 111 111 0 0 0-3.61 15.24c-6.11 2.16-9.15 3.29-15.24 5.5 8.61-23.5 14.68-47.94 21.41-72-.81-2.48-1.22-3.71-2-6.17a345 345 0 0 1 20.42-5.79m-4.78 46.33a561 561 0 0 0-6.15-19.49l-.2.06a381 381 0 0 0-6.41 23.36c5.1-1.66 7.65-2.46 12.76-3.93M166.73 3c10.24-.67 16-.45 20.93 1.9 6.48 3.11 9.85 8.28 9.85 15.53 0 7.06-3.34 14.64-13.17 19.14l5.35 11c5.23 10.77 8.27 17 10.67 20.73-8.9.22-13.35.4-22.25.91-.84-2.5-1.36-4-3.14-8.34-3.27-8-4.91-12-8.18-19.93l-4.59.36v12.16c0 5.1 0 9.22.65 16.81-7.93.64-11.89 1-19.8 1.91 1.15-11.66 1-23.47 1-35.12s.1-23.31-1.12-34.88A699 699 0 0 1 166.73 3m-4.55 29.38a18 18 0 0 0 3.65.1c7.79-.54 12-4.73 12-10s-4.24-9-12-8.41a19 19 0 0 0-3.65.68c-.02 7.07-.02 10.6 0 17.66zm96.58 55.47c-10.23-.46-20.46-5.82-24.43-15.14a6 6 0 0 1-1.15.07c-18.66-.5-30.44-19.56-30.43-36.46 0-16.66 11.94-37.11 30.47-36.3 18.95.84 30.38 19.87 30.41 37.87 0 11.9-4.68 24.49-15.29 30.94 2.81 3.76 7.72 5.31 12.42 5.82zM233.21 11.3c-6.91-.18-10.16 8.84-10.16 24.92s3.24 25.1 10.14 25.28 10.14-8.68 10.16-24.76-3.22-25.26-10.14-25.44m56.58-6.02c-.64 7.58-.65 11.7-.66 16.8l-.07 30.09c0 7.85 2.37 12.37 10 13.75 8.23 1.49 10.34-2.85 10.38-11l.14-29.37c0-5.11.05-9.24-.55-17 6 1.3 9.06 2.07 15.12 3.7-.7 7.45-.73 11.59-.78 16.73l-.24 30.23c-.07 9.23-2.38 14.45-7.33 16.86s-11.47 2.88-19.59 1.54C289 76.41 282.55 74 278.08 70c-5.82-5.25-7.18-10.93-7.16-22.4l.08-27.29c0-5.09 0-9.21-.6-16.91 7.75.6 11.6.99 19.39 1.88m89.68 23.83-.26 12.36a204 204 0 0 0-21.81-8L352.79 32c-.13 1.75-.3 5.41-.35 9s-.41 8.69.06 9.32c2.27 3 14.37 4.78 18.72 5.66l-.24 12.47c-4.33-1.94-17.81-7.39-18.66-6.82-.35.22-.3 5.79-.36 9.62s0 7.7.05 9.75c11.7 4.46 23.34 7.76 27.76 8.57l-.27 12.71c-15.69-5.38-31.26-11.09-46.93-16.51 1.34-11.68 1.3-23.55 1.43-35.23s.4-23.82-.67-35.66c15.41 4.64 30.74 9.55 46.14 14.23M431 38.56c0 4.89-.05 7.38-.09 12.43-7.45-1.3-14.5-2.17-20.45-3.17-1.74-.29-2.62-.45-4.38-.79-.13 1.8-.31 5.55-.38 9.25s-.42 9 0 9.55c2 2.36 13.74 2.22 17.85 2l-.15 12.8c-4.13-.86-16.79-4-17.92-3.14-.41.31-.32 6-.39 10s-.05 7.93 0 10c11.41 2.74 22.66 2.7 26.91 2.08 0 5.22-.05 7.82-.08 12.93-15.89-.17-30.8-4-46-8.22 1.46-12.06 1.54-24.32 1.79-36.4s.67-24.37-.25-36.51c14.19 3.94 28.77 6.89 43.54 7.19M52.24 145.42l4-3a5.2 5.2 0 0 0 4.33 2.26c1.64 0 2.62-.49 2.62-1.65 0-.88-.67-1.31-2-1.77l-2.43-.82c-3-1-5.15-2.84-5.15-6.25 0-4.08 3.38-6.19 7.07-6.19s5.85 1.31 7.07 2.75l-3.17 3.32a4.7 4.7 0 0 0-3.6-1.5c-1.34 0-2 .61-2 1.44s.46 1.19 1.46 1.52l2.75.92c4.14 1.37 5.54 3.35 5.54 6.28 0 3.81-2.37 6.55-7.86 6.55-4.69-.02-7.35-2.15-8.63-3.86m28.6 3.58h-5.55v-20.77h8.38c5.27 0 8.2 3.2 8.2 7.43s-2.93 7.34-8.2 7.34h-2.83zm2.56-10.57c1.89 0 2.89-1 2.89-2.72a2.56 2.56 0 0 0-2.89-2.74h-2.56v5.46zm14.08.16c0-6.25 5.15-10.61 11.12-10.61s11.13 4.36 11.13 10.61-5.15 10.64-11.13 10.64-11.12-4.39-11.12-10.64m16.58 0c0-3.26-2-5.79-5.46-5.79s-5.45 2.53-5.45 5.79 2 5.82 5.45 5.82 5.46-2.56 5.46-5.82M131.92 149h-5.55v-20.77h8.39c5.27 0 8.2 3.11 8.2 7.34a6.3 6.3 0 0 1-3.78 6l4.3 7.34h-6l-3.66-6.49h-1.89zm2.56-10.73c1.89 0 2.9-.94 2.9-2.65s-1-2.65-2.9-2.65h-2.56v5.3zm20.06-5.38h-5.49v-4.66h16.53v4.66h-5.49V149h-5.55zm15.91 12.53 4-3a5.3 5.3 0 0 0 4.33 2.26c1.65 0 2.62-.49 2.62-1.65 0-.88-.67-1.31-2-1.77l-2.44-.82c-3-1-5.15-2.84-5.15-6.25 0-4.08 3.39-6.19 7.07-6.19s5.86 1.31 7.08 2.75l-3.18 3.32a4.7 4.7 0 0 0-3.59-1.5c-1.34 0-2 .61-2 1.44s.45 1.19 1.46 1.52l2.74.92c4.15 1.37 5.55 3.35 5.55 6.28 0 3.81-2.38 6.55-7.86 6.55-4.7-.02-7.35-2.15-8.63-3.86m46.39-6.8V149h-5.21v-21c0-.18.09-.33.43-.06l13 10.73v-10.44h5.22v21c0 .24-.1.33-.43.06zm21.1-10.39h14.54v4.66h-9v3.41H251v4.42h-7.49v3.57h9.41V149h-15zm26.06 4.66h-5.49v-4.66h16.52v4.66h-5.48V149H264zm25 16.31c-.09.21-.27.21-.36 0l-8.69-21h5.82l3.87 9.72 4.45-10.12c.07-.15.19-.15.25 0L299 138l3.69-9.72h5.55l-8.57 21c-.09.24-.24.24-.36 0l-5.18-11.13zm22.37-10.61c0-6.25 5.15-10.61 11.12-10.61s11.13 4.36 11.13 10.61-5.15 10.64-11.13 10.64-11.12-4.39-11.12-10.64m16.58 0c0-3.26-2-5.79-5.46-5.79s-5.45 2.53-5.45 5.79 2 5.82 5.45 5.82 5.51-2.56 5.51-5.82zM344 149h-5.55v-20.77h8.39c5.27 0 8.2 3.11 8.2 7.34a6.3 6.3 0 0 1-3.78 6l4.3 7.34h-6l-3.66-6.49H344zm2.56-10.73c1.89 0 2.9-.94 2.9-2.65s-1-2.65-2.9-2.65H344v5.3zm26.38-10.04h6l-6.88 9 7.71 11.77h-6.56l-4.93-7.52-1.74 2.13V149H361v-20.77h5.55v8.59z"/></svg>