<svg xmlns="http://www.w3.org/2000/svg" viewBox="0 0 338.67 89.86"><defs><linearGradient id="a" x1="7019" x2="7018.71" y1="-7034.96" y2="-7021.16" gradientTransform="matrix(1 0 0 -1 -6943.07 -7000.69)" gradientUnits="userSpaceOnUse"><stop offset="0" stop-color="#f7fbff" stop-opacity=".4"/><stop offset="1" stop-color="#fff" stop-opacity=".1"/></linearGradient><linearGradient id="b" x1="7019.04" x2="7019.04" y1="-7009.35" y2="-7015.35" gradientTransform="matrix(5.4599 0 0 -5.46494 -37851.753 -38220.737)" gradientUnits="userSpaceOnUse"><stop offset="0" stop-color="#f7fbff" stop-opacity=".6"/><stop offset=".67" stop-color="#fff" stop-opacity=".03"/><stop offset="1" stop-color="#fff" stop-opacity="0"/></linearGradient></defs><path d="M89.26 85.21h763.9a32.14 32.14 0 0 1 32.21 32.21v197.84a32.14 32.14 0 0 1-32.2 32.21H89.26a32.14 32.14 0 0 1-32.22-32.2V117.41A32.14 32.14 0 0 1 89.25 85.2" style="fill:#fed96c;stroke-width:5.46243" transform="matrix(.3368 0 0 .34214 -19.123 -29.023)"/><path d="M357.07 313.15H251.26v-10.93q4.7-.43 11.52-1.36a40.4 40.44 0 0 0 9.28-2.02 14.8 14.8 0 0 0 7.32-5.47 17.14 17.16 0 0 0 2.18-9.07V138.55l-67.05 171.38h-17.3q-1.26-4.54-6.12-17.98l-7.92-21.86-49.14-134.06v118.92a110.45 110.56 0 0 0 2.24 25.9 23.7 23.72 0 0 0 7.37 12.96 35.76 35.8 0 0 0 12.23 5.46 88.72 88.8 0 0 0 12.4 3v10.94h-84.2v-10.93c2.3 0 6.07-.93 11.26-1.86a31.18 31.2 0 0 0 12.72-4.92 19.87 19.9 0 0 0 7.42-12.95 133.28 133.4 0 0 0 1.91-26.07v-96.62a41.6 41.64 0 0 0-2.18-14.64 20.75 20.77 0 0 0-6.77-9.24 28.01 28.04 0 0 0-11.25-5.46 86 86.07 0 0 0-11.68-1.64v-10.93h90.2l47.77 128.42 40.78-104.21a131.04 131.16 0 0 0 3.99-13.72 73.82 73.89 0 0 0 2.08-10.38h86.37v10.93a85.07 85.14 0 0 0-9.23 1.09 66.83 66.89 0 0 0-9.22 2.18 11 11 0 0 0-7.05 5.47 20.31 20.33 0 0 0-1.63 8.52v138.1a18 18 0 0 0 1.63 8.31 14 14 0 0 0 7.1 5.85 41.77 41.8 0 0 0 9.01 2.35q6.23 1.13 9.66 1.53z" style="fill:#020305;stroke-width:5.46243" transform="matrix(.3368 0 0 .34214 -19.123 -29.023)"/><path d="M483.74 280.25a83.1 83.18 0 0 1-11.63 14.76 69.94 70 0 0 1-15.45 11.86 84.85 84.93 0 0 1-18.62 7.87 80.1 80.17 0 0 1-21.84 2.68 96.31 96.4 0 0 1-35.1-5.8 68.74 68.8 0 0 1-24.03-15.52 62.08 62.14 0 0 1-14.36-23.06 84.8 84.87 0 0 1-4.75-28.8 71.3 71.37 0 0 1 5.14-26.89 72.45 72.52 0 0 1 14.63-22.9 69.94 70 0 0 1 23.58-15.79 80.75 80.83 0 0 1 31.84-6.07 90.74 90.83 0 0 1 31.6 4.7 55.7 55.74 0 0 1 20.48 12.96 46.68 46.73 0 0 1 11.42 18.47 69.34 69.4 0 0 1 3.54 22.35v8.74h-92.81q0 28.2 10.92 42.85t34.56 14.7a40.4 40.44 0 0 0 23.26-7.05 66.56 66.62 0 0 0 17.3-17.7zm-52.3-52.51q0-8.26-.82-16.94a56.62 56.67 0 0 0-2.9-14.16 21.51 21.53 0 0 0-6.44-9.78 16 16 0 0 0-10.32-3.28 19.11 19.13 0 0 0-16.98 10.93 72.89 72.96 0 0 0-6.88 33.83z" style="fill:#020305;stroke-width:5.46243" transform="matrix(.3368 0 0 .34214 -19.123 -29.023)"/><path d="M84.79 13.01h58.16a3.93 3.93 0 0 1 3.94 3.93V48.3a3.93 3.93 0 0 1-3.94 3.93H84.8a3.93 3.93 0 0 1-3.94-3.93V16.94a3.93 3.93 0 0 1 3.94-3.93" data-name="TV BOX" style="fill:#020305" transform="matrix(1.83891 0 0 1.86977 0 -16.155)"/><path d="M85.24 18.25v6.85h8.64v20.74h9.29V25.1h8.44v-6.85zm37.98 27.59h9.84l10.62-27.6h-10.14l-5.27 17.92-5.65-17.92h-10.14z" style="fill:#fff" transform="matrix(1.83891 0 0 1.86977 0 -16.155)"/><g style="opacity:.5"><path d="M149.87 10.06A6 6 0 0 0 146 8.64H5.53A5.53 5.53 0 0 0 0 14.17v32.75c60.92-28 151.7-14.13 151.7-14.13V14.17a5.5 5.5 0 0 0-1.83-4.11" style="fill:url(#a)" transform="matrix(1.83891 0 0 1.86977 0 -16.155)"/></g><path d="M885.76 117.73h-1.31c0-17.6-15.78-27.33-33.64-27.33l-764.38-.54a29.32 29.35 0 0 0-27.3 23.82h-1.8a30.3 30.33 0 0 1 29.42-28.74h767.83c17.2 0 31.18 11.2 31.18 32.79" style="fill:url(#b);stroke-width:5.46243" transform="matrix(.3368 0 0 .34214 -19.123 -29.023)"/><path d="M97.14 114.14c-4.86 0-8.81 4.03-8.81 8.92s3.95 8.91 8.8 8.91 8.82-4.02 8.82-8.91-3.95-8.92-8.81-8.92m0 3.52c2.92 0 5.29 2.38 5.29 5.4s-2.36 5.4-5.3 5.4-5.28-2.39-5.28-5.4 2.36-5.4 5.29-5.4" style="color:#000;font-style:normal;font-variant:normal;font-weight:400;font-stretch:normal;font-size:medium;line-height:normal;font-family:sans-serif;font-variant-ligatures:normal;font-variant-position:normal;font-variant-caps:normal;font-variant-numeric:normal;font-variant-alternates:normal;font-variant-east-asian:normal;font-feature-settings:normal;font-variation-settings:normal;text-indent:0;text-align:start;text-decoration:none;text-decoration-line:none;text-decoration-style:solid;text-decoration-color:#000;letter-spacing:normal;word-spacing:normal;text-transform:none;writing-mode:lr-tb;direction:ltr;text-orientation:mixed;dominant-baseline:auto;baseline-shift:baseline;text-anchor:start;white-space:normal;shape-padding:0;shape-margin:0;inline-size:0;clip-rule:nonzero;display:inline;overflow:visible;visibility:visible;isolation:auto;mix-blend-mode:normal;color-interpolation:sRGB;color-interpolation-filters:linearRGB;solid-color:#000;solid-opacity:1;vector-effect:none;fill:#fff;fill-opacity:1;fill-rule:evenodd;stroke:none;stroke-width:3.524;stroke-linecap:butt;stroke-linejoin:miter;stroke-miterlimit:4;stroke-dasharray:none;stroke-dashoffset:0;stroke-opacity:1;paint-order:stroke fill markers;color-rendering:auto;image-rendering:auto;shape-rendering:auto;text-rendering:auto;stop-color:#000" transform="translate(-95.316 -459.033)scale(4.0961)"/><path d="M104.19 123.06c0 3.95-3.16 7.15-7.05 7.15s-7.05-3.2-7.05-7.15 3.15-7.16 7.05-7.16 7.05 3.2 7.05 7.16" style="color:#000;font-style:normal;font-variant:normal;font-weight:400;font-stretch:normal;font-size:medium;line-height:normal;font-family:sans-serif;font-variant-ligatures:normal;font-variant-position:normal;font-variant-caps:normal;font-variant-numeric:normal;font-variant-alternates:normal;font-variant-east-asian:normal;font-feature-settings:normal;font-variation-settings:normal;text-indent:0;text-align:start;text-decoration:none;text-decoration-line:none;text-decoration-style:solid;text-decoration-color:#000;letter-spacing:normal;word-spacing:normal;text-transform:none;writing-mode:lr-tb;direction:ltr;text-orientation:mixed;dominant-baseline:auto;baseline-shift:baseline;text-anchor:start;white-space:normal;shape-padding:0;shape-margin:0;inline-size:0;clip-rule:nonzero;display:inline;overflow:visible;visibility:visible;isolation:auto;mix-blend-mode:normal;color-interpolation:sRGB;color-interpolation-filters:linearRGB;solid-color:#000;solid-opacity:1;vector-effect:none;fill:#0170bf;fill-opacity:1;fill-rule:evenodd;stroke:none;stroke-width:3.524;stroke-linecap:butt;stroke-linejoin:miter;stroke-miterlimit:4;stroke-dasharray:none;stroke-dashoffset:0;stroke-opacity:1;paint-order:stroke fill markers;color-rendering:auto;image-rendering:auto;shape-rendering:auto;text-rendering:auto;stop-color:#000" transform="translate(-95.316 -459.033)scale(4.0961)"/><path d="M367.19 446.44a5.23 5.23 0 0 0-5.24 5.24v8.1h-8.11a5.23 5.23 0 1 0 0 10.47h8.11v8.13a5.23 5.23 0 1 0 10.47 0v-8.12h8.12a5.23 5.23 0 1 0 0-10.47h-8.12v-8.11c0-2.9-2.33-5.24-5.23-5.24" style="fill:#fff;fill-rule:evenodd;stroke-width:3.21346;paint-order:stroke fill markers" transform="translate(-95.316 -459.033)scale(1.08376)"/></svg>