<svg xmlns="http://www.w3.org/2000/svg" xml:space="preserve" id="Layer_1" x="0" y="0" viewBox="0 0 772.18 293.4"><style>.st0{fill:#314c83}</style><path d="M322.44 24.82C382.64 6.72 445.77-.9 508.54.08c41.06.77 82.2 5.8 121.74 17.09 33.72 9.66 66.4 23.96 95 44.44 14.66 10.53 28.23 22.66 39.83 36.5a283 283 0 0 0-37.74-30.86c-30.35-20.72-64.67-35.27-100.24-44.2a399 399 0 0 0-61.58-10.33c-22.66-2.09-45.46-2.28-68.19-1.46a629 629 0 0 0-76.85 7.44c-36.9 5.96-73.32 15.43-108 29.46-32.24 13.1-63.08 30.2-89.85 52.56-.7.47-1.26 1.42-2.2 1.32q-20.6-.2-41.17-.37c12.92-12.48 27.44-23.22 42.68-32.7 31.22-19.32 65.4-33.51 100.47-44.15" class="st0"/><path d="M415.83 35.38c28.34-4.89 57.07-7.8 85.85-7.85 43.14-.12 86.47 4.62 128.1 16.18 17.98 5.04 35.62 11.37 52.48 19.42 15.87 7.6 31.07 16.7 44.71 27.83 12.5 10.23 23.71 22.24 31.92 36.21 8.47 14.33 13.59 30.87 13.28 47.59.2 18.55-5.88 36.74-15.2 52.63-9.2 15.65-21.49 29.31-35.1 41.24a242 242 0 0 1-24.15 18.54c-31.24.13-62.5.03-93.76.05 14.3-8.06 27.99-17.23 40.5-27.87 12.42-10.6 23.72-22.7 32.46-36.56 10.05-15.82 16.4-34.32 16.19-53.19-.03-17.45-5.94-34.6-15.68-48.97-9.36-13.95-21.87-25.54-35.56-35.16-15.34-10.72-32.24-19.06-49.7-25.72-38.53-14.53-79.66-21.15-120.69-22.96-24.19-.95-48.47-.5-72.54 2.25-2.2.18-4.38.7-6.6.58 7.85-1.32 15.63-2.97 23.49-4.24" class="st0"/><path d="M79.18 110.7c17.6-4.17 35.8-5.16 53.84-4.83 10.59.18 21.18.78 31.67 2.27 11.1 1.64 22.25 4.16 32.23 9.45 7.38 3.9 13.94 9.75 17.6 17.35 4.25 8.65 4.66 18.63 3.46 28.03-22.94.03-45.87 0-68.81.01.2-3.8.32-7.84-1.41-11.35-1.37-2.83-3.98-4.86-6.83-6.1-4.31-1.85-9.03-2.47-13.68-2.83a94 94 0 0 0-20.66.69c-5.9.98-11.92 2.76-16.57 6.68a17 17 0 0 0-6.07 11.78 6.9 6.9 0 0 0 3.43 6.14c3.85 2.39 8.5 2.68 12.87 3.46 22.77 3.63 45.6 6.96 68.36 10.68 9.17 1.48 18.37 3.4 26.9 7.2 5.85 2.6 11.42 6.22 15.38 11.32 3.99 5.06 6.05 11.48 6.22 17.88 1.07-5.86 2.51-11.65 3.73-17.48l19.65-89.8q34.92.02 69.82 0c20 36.63 39.89 73.34 59.86 110l.78.8c8.14-36.92 16.15-73.86 24.27-110.78q16.55-.02 33.11 0c10.92-.2 21.84-.06 32.76-.01h40.46l24.36 74.98 57.2-74.98q35.16-.02 70.32 0c-25.66 29-51.37 57.96-77.04 86.94-10.04 11.38-20.22 22.67-30.17 34.12-4.2 18.51-8.15 37.1-12.25 55.64h-60.66l12.03-54.98c.25-.67-.1-1.28-.35-1.87-12.89-28.58-25.63-57.22-38.55-85.78-.67 2.47-1.12 4.99-1.7 7.48l-29.57 135.15-67.03-.01-55.95-99.54c-2.41-4.1-4.49-8.39-7.12-12.34-1.75 6.74-3.02 13.6-4.58 20.38l-20.04 91.5h-58.62q4.36-19.92 8.7-39.85a63 63 0 0 1-14.01 18.48c-9.99 9.12-22.45 15.07-35.27 19.04-18.6 5.67-38.11 7.48-57.47 7.78H91.15c-17.84-.41-35.9-1.26-53.2-5.95-8.48-2.36-16.85-5.77-23.74-11.35a37 37 0 0 1-11.7-16.34c-3.02-8.38-2.92-17.53-1.76-26.24h71.88c-.58 5.01.01 10.74 3.88 14.4 4.8 4.53 11.64 5.77 17.95 6.63 9.08.94 18.34 1.2 27.37-.3 6.52-1.15 13.23-3.38 17.91-8.28a19 19 0 0 0 5.17-11.64 7.7 7.7 0 0 0-2.86-6.65c-2.95-2.36-6.68-3.4-10.27-4.36-8.19-2.01-16.58-2.97-24.9-4.3l-38.35-5.81c-9.7-1.42-19.57-2.79-28.62-6.78-7.6-3.24-14.67-8.55-18.42-16.07-4.27-8.41-4.09-18.3-2.22-27.33a58.8 58.8 0 0 1 18.86-32.53c11.53-10.25 26.2-16.24 41.05-19.8" class="st0"/></svg>